0
SECTION
2
HEADER
9
$INSUNITS
70
4
9
$ACADVER
1
AC1014
9
$HANDSEED
5
FFFF
0
ENDSEC
0
SECTION
2
TABLES
0
TABLE
2
VPORT
5
8
100
AcDbSymbolTable
0
ENDTAB
0
TABLE
2
LTYPE
5
5
100
AcDbSymbolTable
0
LTYPE
5
14
100
AcDbSymbolTableRecord
100
AcDbLinetypeTableRecord
2
BYBLOCK
70
0
0
LTYPE
5
15
100
AcDbSymbolTableRecord
100
AcDbLinetypeTableRecord
2
BYLAYER
70
0
0
LTYPE
5
16
100
AcDbSymbolTableRecord
100
AcDbLinetypeTableRecord
2
DASHED
70
0
3
Dashed __ __ __ __ __ __ __ __ __ __ __ __ __ _
72
65
73
2
40
0.75
49
0.5
74
0
49
-0.25
74
0
0
ENDTAB
0
TABLE
2
LAYER
5
2
100
AcDbSymbolTable
70
2
0
LAYER
5
50
100
AcDbSymbolTableRecord
100
AcDbLayerTableRecord
2
0
70
0
62
7
6
CONTINUOUS
0
ENDTAB
0
TABLE
2
STYLE
5
3
100
AcDbSymbolTable
70
1
0
STYLE
5
11
100
AcDbSymbolTableRecord
100
AcDbTextStyleTableRecord
2
STANDARD
70
0
0
ENDTAB
0
TABLE
2
VIEW
5
6
100
AcDbSymbolTable
70
0
0
ENDTAB
0
TABLE
2
UCS
5
7
100
AcDbSymbolTable
70
0
0
ENDTAB
0
TABLE
2
APPID
5
9
100
AcDbSymbolTable
70
2
0
APPID
5
12
100
AcDbSymbolTableRecord
100
AcDbRegAppTableRecord
2
ACAD
70
0
0
ENDTAB
0
TABLE
2
DIMSTYLE
5
A
100
AcDbSymbolTable
70
1
0
ENDTAB
0
TABLE
2
BLOCK_RECORD
5
1
100
AcDbSymbolTable
70
1
0
BLOCK_RECORD
5
1F
100
AcDbSymbolTableRecord
100
AcDbBlockTableRecord
2
*MODEL_SPACE
0
BLOCK_RECORD
5
1B
100
AcDbSymbolTableRecord
100
AcDbBlockTableRecord
2
*PAPER_SPACE
0
ENDTAB
0
ENDSEC
0
SECTION
2
BLOCKS
0
BLOCK
5
20
100
AcDbEntity
100
AcDbBlockBegin
2
*MODEL_SPACE
0
ENDBLK
5
21
100
AcDbEntity
100
AcDbBlockEnd
0
BLOCK
5
1C
100
AcDbEntity
100
AcDbBlockBegin
2
*PAPER_SPACE
0
ENDBLK
5
1D
100
AcDbEntity
100
AcDbBlockEnd
0
ENDSEC
0
SECTION
2
ENTITIES
0
POINT
5
100
100
AcDbEntity
8
0
100
AcDbPoint
10
0
20
0
30
0
0
POINT
5
101
100
AcDbEntity
8
0
100
AcDbPoint
10
0
20
0
30
0
0
POINT
5
102
100
AcDbEntity
8
0
100
AcDbPoint
10
0
20
0
30
0
0
POINT
5
103
100
AcDbEntity
8
0
100
AcDbPoint
10
0
20
0
30
0
0
POINT
5
104
100
AcDbEntity
8
0
100
AcDbPoint
10
0
20
0
30
0
0
POINT
5
105
100
AcDbEntity
8
0
100
AcDbPoint
10
0
20
0
30
0
0
POINT
5
106
100
AcDbEntity
8
0
100
AcDbPoint
10
-141.77984611450165
20
-215.35767685073586
30
0
0
POINT
5
107
100
AcDbEntity
8
0
100
AcDbPoint
10
-80.078227715794043
20
-482.45831025179621
30
0
0
POINT
5
108
100
AcDbEntity
8
0
100
AcDbPoint
10
-141.77984611450165
20
-215.35767685073586
30
0
0
ARC
5
109
100
AcDbEntity
8
0
100
AcDbCircle
10
-683.95139722332885
20
-754.3576836091994
30
0
40
1.7401009509213199
210
0
220
0
230
1
100
AcDbArc
50
224.99999999999736
51
270.00000000000375
0
LINE
5
110
100
AcDbEntity
8
0
100
AcDbLine
10
-688.01026153042085
20
-752.75969366679863
30
0
11
-685.18183440567452
21
-755.58812079154495
31
0
0
LINE
5
111
100
AcDbEntity
8
0
100
AcDbLine
10
-685.18186144723745
20
-75.127246423349462
30
0
11
-688.01028857198366
21
-77.955673548095831
31
0
0
ARC
5
112
100
AcDbEntity
8
0
100
AcDbCircle
10
-686.77985138963822
20
-79.186110730441399
30
0
40
1.7401009509211316
210
0
220
0
230
1
100
AcDbArc
50
134.99999999999702
51
180
0
ARC
5
113
100
AcDbEntity
8
0
100
AcDbCircle
10
-683.95142426489156
20
-76.357683605695158
30
0
40
1.7400998084402546
210
0
220
0
230
1
100
AcDbArc
50
90.000051476107714
51
135.00000000000463
0
LINE
5
114
100
AcDbEntity
8
0
100
AcDbLine
10
-688.51995208446237
20
-108.80768360919886
30
0
11
-694.98145099067824
21
-108.80768360919886
31
0
0
LINE
5
115
100
AcDbEntity
8
0
100
AcDbLine
10
1.6221692182339975
20
-755.58810727812227
30
0
11
4.4505963429801607
21
-752.75968015337594
31
0
0
LINE
5
116
100
AcDbEntity
8
0
100
AcDbLine
10
11.421772284205955
20
-108.80768360920321
30
0
11
4.9602466022547276
21
-108.80768360919886
31
0
0
ARC
5
117
100
AcDbEntity
8
0
100
AcDbCircle
10
0.39173203588786037
20
-754.35767009577603
30
0
40
1.7400998084408941
210
0
220
0
230
1
100
AcDbArc
50
270.00005147611705
51
314.99999999999773
0
LINE
5
118
100
AcDbEntity
8
0
100
AcDbLine
10
-29.229851389643557
20
-756.09777105642263
30
0
11
0.3917335992417792
21
-756.09776990421619
31
0
0
ARC
5
119
100
AcDbEntity
8
0
100
AcDbCircle
10
-3.9798408393700555
20
-723.15767009577655
30
0
40
0.99999999999994316
210
0
220
-0
230
1
100
AcDbArc
50
89.999999999997257
51
90.000774583105979
0
ARC
5
120
100
AcDbEntity
8
0
100
AcDbCircle
10
3.2201591606339908
20
-751.52924297103004
30
0
40
1.7401009509219565
210
0
220
0
230
1
100
AcDbArc
50
315.00000000000642
51
360
0
LINE
5
121
100
AcDbEntity
8
0
100
AcDbLine
10
-28.979840839365817
20
-747.15767009577235
30
0
11
-28.979840839365814
21
-747.15768360919458
31
0
0
ARC
5
122
100
AcDbEntity
8
0
100
AcDbCircle
10
-3.9798408393700555
20
-723.15767009577655
30
0
40
0.99999999999994316
210
0
220
-0
230
1
100
AcDbArc
50
89.999999999997257
51
90.000774583105979
0
LINE
5
123
100
AcDbEntity
8
0
100
AcDbLine
10
-28.979840839365817
20
-747.15767009577235
30
0
11
-28.979840839365814
21
-747.15768360919458
31
0
0
LINE
5
124
100
AcDbEntity
8
0
100
AcDbLine
10
4.9602601115558027
20
-721.90768360920333
30
0
11
11.421772284205955
21
-721.90768360920333
31
0
0
LINE
5
125
100
AcDbEntity
8
0
100
AcDbLine
10
-29.229851389643557
20
-67.257056963097739
30
0
11
-654.32985138964352
21
-67.257056963098023
31
0
0
LINE
5
126
100
AcDbEntity
8
0
100
AcDbLine
10
4.9602466022547276
20
-108.80768360919886
30
0
11
4.9602454500484336
21
-79.186109170595685
31
0
0
LINE
5
127
100
AcDbEntity
8
0
100
AcDbLine
10
-654.32982434808093
20
-763.45831025179621
30
0
11
-29.229824348080911
21
-763.45831025179609
31
0
0
LINE
5
128
100
AcDbEntity
8
0
100
AcDbLine
10
-29.229824348080911
20
-763.45831025179609
30
0
11
-29.229824348080907
21
-756.09777105642161
31
0
0
LINE
5
129
100
AcDbEntity
8
0
100
AcDbLine
10
11.421772284205955
20
-721.90768360920333
30
0
11
11.421772284205955
21
-108.80768360920321
31
0
0
LINE
5
130
100
AcDbEntity
8
0
100
AcDbLine
10
-654.32985138964352
20
-67.257056963098023
30
0
11
-654.32985138964352
21
-74.617582645049424
31
0
0
LINE
5
131
100
AcDbEntity
8
0
100
AcDbLine
10
-654.32982434808093
20
-756.09778430402355
30
0
11
-654.32982434808093
21
-763.45831025179621
31
0
0
ARC
5
132
100
AcDbEntity
8
0
100
AcDbCircle
10
3.2201456416086178
20
-79.186110733949405
30
0
40
1.7400998084405179
210
0
220
-0
230
1
100
AcDbArc
50
5.1474833762605102e-05
51
45.000000000002139
0
LINE
5
133
100
AcDbEntity
8
0
100
AcDbLine
10
-688.5199253087211
20
-721.90768360920333
30
0
11
-688.51992415651478
21
-751.52925804780637
31
0
0
LINE
5
134
100
AcDbEntity
8
0
100
AcDbLine
10
4.4505828239544778
20
-77.955673551603454
30
0
11
1.6221556992081325
21
-75.127246426857255
31
0
0
LINE
5
135
100
AcDbEntity
8
0
100
AcDbLine
10
-694.98145099067824
20
-108.80768360919886
30
0
11
-694.98145099067824
21
-721.9076836091989
31
0
0
LINE
5
136
100
AcDbEntity
8
0
100
AcDbLine
10
-654.32982434808093
20
-74.617582645048373
30
0
11
-683.95142582824519
21
-74.617583797255605
31
0
0
LINE
5
137
100
AcDbEntity
8
0
100
AcDbLine
10
-29.229851389643557
20
-74.617582914377749
30
0
11
-29.229851389643557
21
-67.257056963097739
31
0
0
ARC
5
138
100
AcDbEntity
8
0
100
AcDbCircle
10
0.39171851686227499
20
-76.357683609203264
30
0
40
1.7401009509217609
210
0
220
-0
230
1
100
AcDbArc
50
45.000000000003517
51
89.999999999999375
0
LINE
5
139
100
AcDbEntity
8
0
100
AcDbLine
10
-694.98145099067824
20
-721.9076836091989
30
0
11
-688.5199253087211
21
-721.90768360920333
31
0
0
ARC
5
140
100
AcDbEntity
8
0
100
AcDbCircle
10
-686.7798243480745
20
-751.5292564844525
30
0
40
1.7400998084410366
210
0
220
0
230
1
100
AcDbArc
50
180.00005147483375
51
224.99999999999471
0
LINE
5
141
100
AcDbEntity
8
0
100
AcDbLine
10
-683.95139722332874
20
-756.09778456012066
30
0
11
-654.32982434808093
21
-756.09778430402355
31
0
0
LINE
5
142
100
AcDbEntity
8
0
100
AcDbLine
10
-688.51995234055937
20
-79.186110730441669
30
0
11
-688.51995208446237
21
-108.80768360919886
31
0
0
LINE
5
143
100
AcDbEntity
8
0
100
AcDbLine
10
0.39171851686229442
20
-74.61758265828152
30
0
11
-29.229851389643557
21
-74.617582914377749
31
0
0
LINE
5
144
100
AcDbEntity
8
0
100
AcDbLine
10
4.9602601115559217
20
-751.52924297103016
30
0
11
4.9602601115558027
21
-721.90768360920333
31
0
0
CIRCLE
5
145
100
AcDbEntity
8
0
100
AcDbCircle
10
-80.078227715794043
20
-482.45831025179621
30
0
40
9.9999999999999911
210
0
220
0
230
1
0
CIRCLE
5
146
100
AcDbEntity
8
0
100
AcDbCircle
10
-630.1681947775993
20
-597.68000833585143
30
0
40
9.9999999999999982
210
0
220
-0
230
1
0
CIRCLE
5
147
100
AcDbEntity
8
0
100
AcDbCircle
10
-524.10217557005876
20
-703.74602348427516
30
0
40
10.000000000000002
210
0
220
-0
230
1
0
CIRCLE
5
148
100
AcDbEntity
8
0
100
AcDbCircle
10
-53.391497451404071
20
-233.03534536562034
30
0
40
10.000000000000002
210
0
220
-0
230
1
0
CIRCLE
5
149
100
AcDbEntity
8
0
100
AcDbCircle
10
-159.45751665894454
20
-126.96933021719666
30
0
40
9.9999999999999982
210
0
220
-0
230
1
0
ENDSEC
0
SECTION
2
OBJECTS
0
DICTIONARY
5
C
100
AcDbDictionary
3
ACAD_GROUP
350
D
3
ACAD_MLINESTYLE
350
17
0
DICTIONARY
5
D
100
AcDbDictionary
0
DICTIONARY
5
1A
330
C
100
AcDbDictionary
0
DICTIONARY
5
17
100
AcDbDictionary
0
ENDSEC
0
EOF
